<svg xmlns="http://www.w3.org/2000/svg" xmlns:xlink="http://www.w3.org/1999/xlink" aria-hidden="true" role="img" class="iconify iconify--logos" width="31.88" height="32" preserveAspectRatio="xMidYMid meet" viewBox="0 0 256 257"><defs><linearGradient id="IconifyId1813088fe1fbc01fb466" x1="-.828%" x2="100.828%" y1="103.566%" y2="-3.566%"><stop offset="0%" stop-color="#41D1FF"></stop><stop offset="100%" stop-color="#BD34FE"></stop></linearGradient><linearGradient id="IconifyId1813088fe1fbc01fb467" x1="15.332%" x2="84.668%" y1="85.33%" y2="15.33%"><stop offset="0%" stop-color="#FFEA83"></stop><stop offset="8.333%" stop-color="#FFDD35"></stop><stop offset="100%" stop-color="#FFA800"></stop></linearGradient></defs><path fill="url(#IconifyId1813088fe1fbc01fb466)" d="M255.153 37.342c-3.42-11.29-9.94-21.32-19.54-29.49C215.823.172 189.513-2.495 164.993 2.225c-24.52 4.72-46.12 17.47-62.59 36.84c-16.47 19.37-27.04 44.11-30.13 70.13c-3.09 26.02 1.49 52.07 13.2 74.51c11.71 22.44 30.1 40.08 52.69 50.47c22.59 10.39 48.44 12.98 73.01 7.47c24.57-5.51 46.86-18.8 64.3-38.29c17.44-19.49 29.22-44.18 33.5-70.37c4.28-26.19 1.1-52.8-9.36-76.42c-10.46-23.62-28.27-42.98-50.15-54.19z"></path><path fill="url(#IconifyId1813088fe1fbc01fb467)" d="M185.463 8.428c-5.41-1.33-10.94-.9-16.31.92c-19.38 6.51-34.42 22.94-41.28 42.03c-6.86 19.09-5.12 40.25 4.53 57.6c9.65 17.35 26.33 29.54 45.91 33.13c19.58 3.59 39.8-1.21 55.37-13.3c15.57-12.09 25.46-29.73 27.98-48.9c2.52-19.17-2.1-38.75-13.14-54.08c-11.04-15.33-27.9-25.7-46.1-28.83c-6.05-1.04-12.22-1.14-18.37-1.4c-1.02-.04-2.05-.08-3.08-.11c-.3-.01-.6-.02-.89-.03c-.02 0-.04 0-.06-.01z"></path><path fill="#1B1B1B" d="M128.001 256.165a128 128 0 0 1-102.4-204.8a128 128 0 0 1 204.8 102.4a127.907 127.907 0 0 1-102.4 102.4z"></path></svg>